<svg width="300" height="300" viewBox="0 0 300 300" xmlns="http://www.w3.org/2000/svg">
    <g fill="none" stroke="#374151" stroke-width="2">
        <rect x="40" y="40" width="32" height="32" rx="4"/>
        <circle cx="56" cy="56" r="3" fill="#374151" stroke="none"/>
        <rect x="180" y="60" width="32" height="32" rx="4"/>
        <circle cx="190" cy="70" r="3" fill="#374151" stroke="none"/>
        <circle cx="202" cy="82" r="3" fill="#374151" stroke="none"/>
        <rect x="100" y="130" width="32" height="32" rx="4"/>
        <circle cx="110" cy="140" r="3" fill="#374151" stroke="none"/>
        <circle cx="116" cy="146" r="3" fill="#374151" stroke="none"/>
        <circle cx="122" cy="152" r="3" fill="#374151" stroke="none"/>
        <rect x="240" y="150" width="32" height="32" rx="4"/>
        <circle cx="250" cy="160" r="3" fill="#374151" stroke="none"/>
        <circle cx="262" cy="160" r="3" fill="#374151" stroke="none"/>
        <circle cx="250" cy="172" r="3" fill="#374151" stroke="none"/>
        <circle cx="262" cy="172" r="3" fill="#374151" stroke="none"/>
        <rect x="50" y="220" width="32" height="32" rx="4"/>
        <circle cx="60" cy="230" r="3" fill="#374151" stroke="none"/>
        <circle cx="72" cy="230" r="3" fill="#374151" stroke="none"/>
        <circle cx="66" cy="236" r="3" fill="#374151" stroke="none"/>
        <circle cx="60" cy="242" r="3" fill="#374151" stroke="none"/>
        <circle cx="72" cy="242" r="3" fill="#374151" stroke="none"/>
        <rect x="160" y="240" width="32" height="32" rx="4"/>
        <circle cx="170" cy="250" r="3" fill="#374151" stroke="none"/>
        <circle cx="182" cy="250" r="3" fill="#374151" stroke="none"/>
        <circle cx="170" cy="256" r="3" fill="#374151" stroke="none"/>
        <circle cx="182" cy="256" r="3" fill="#374151" stroke="none"/>
        <circle cx="170" cy="262" r="3" fill="#374151" stroke="none"/>
        <circle cx="182" cy="262" r="3" fill="#374151" stroke="none"/>
    </g>
</svg>